<svg width="620" height="537" viewBox="0 0 620 537" fill="none" xmlns="http://www.w3.org/2000/svg">
<path d="M310 10L608.2 526.412H11.8L310 10Z" fill="#F9A800" stroke="black" stroke-width="20" stroke-linejoin="round"/>
<path d="M348.85 194.733C348.85 184.433 344.757 174.555 337.471 167.272C330.185 159.989 320.304 155.897 310 155.897C299.696 155.897 289.815 159.989 282.529 167.272C275.243 174.555 271.15 184.433 271.15 194.733L282.7 344.828C282.7 352.066 285.576 359.007 290.696 364.125C295.816 369.243 302.76 372.118 310 372.118C317.24 372.118 324.184 369.243 329.304 364.125C334.424 359.007 337.3 352.066 337.3 344.828M349.9 434.046C349.761 444.578 345.461 454.627 337.937 462.001C330.414 469.375 320.277 473.475 309.741 473.406C299.205 473.336 289.123 469.104 281.697 461.631C274.271 454.159 270.104 444.054 270.104 433.521C270.104 422.988 274.271 412.883 281.697 405.411C289.123 397.938 299.205 393.706 309.741 393.636C320.277 393.567 330.414 397.667 337.937 405.041C345.461 412.415 349.761 422.464 349.9 432.996" fill="black"/>
</svg>
