<svg width="611" height="202" viewBox="0 0 611 202" fill="none" xmlns="http://www.w3.org/2000/svg">
<path d="M131.056 94.6726C131.056 92.4961 130.191 90.4089 128.652 88.8699C127.113 87.331 125.026 86.4663 122.849 86.466C120.673 86.4663 118.586 87.331 117.047 88.8699C115.508 90.4089 114.643 92.4961 114.643 94.6726C114.643 96.849 115.508 98.9363 117.047 100.475C118.586 102.014 120.673 102.879 122.849 102.879C125.026 102.879 127.113 102.014 128.652 100.475C130.191 98.9363 131.056 96.849 131.056 94.6726ZM176.013 77.4454H0.920547C-2.01807 2.57623 117.062 -41.9289 153.612 57.7017C155.367 62.0218 155.892 64.5423 161.427 66.1217L170.12 68.6034C174.163 69.5707 176.127 72.5161 176.013 77.4454Z" fill="black"/>
<path d="M14.3763 84.6501L14.3084 87.6124C14.3084 94.7058 15.4354 101.875 17.6629 108.919C18.4431 111.392 20.0676 114.124 22.1255 117.588C28.7327 128.703 38.7132 145.498 38.7132 182.454V187.516C38.7181 189.379 39.4609 191.165 40.7789 192.482C42.0969 193.799 43.8828 194.541 45.7462 194.545H105.467C109.346 194.545 112.497 191.394 112.497 187.516V165.998H119.356C133.219 165.994 138.16 155.791 138.16 146.244V128.288H148.619C150.704 128.288 152.603 127.448 153.704 126.038C155.283 124.007 155.004 121.142 154.488 119.099L145.796 84.6501H153.481L161.713 117.275C163.383 123.897 161.476 128.187 159.584 130.618C157.081 133.825 152.984 135.74 148.619 135.74H145.612V146.244C145.612 162.308 135.326 173.167 119.952 173.442V187.516C119.945 191.355 118.416 195.035 115.702 197.75C112.987 200.465 109.307 201.993 105.467 202H45.7462C41.9068 201.993 38.2267 200.465 35.5118 197.75C32.797 195.035 31.2687 191.355 31.2617 187.516V182.454C31.2617 147.545 21.9106 131.809 15.7218 121.395C13.5056 117.675 11.5947 114.46 10.5544 111.165C8.12416 103.55 6.87595 95.6064 6.85318 87.6124C6.8555 86.6246 6.87685 85.6371 6.91725 84.6501H14.3763Z" fill="black"/>
<path d="M240.904 67.712L224.52 22.528V93.312H214.408V0H227.72L245.896 55.296L264.072 0H277.128V93.312H267.016V22.4L250.888 67.712H240.904Z" fill="black"/>
<path d="M313.373 24.192C320.285 24.192 325.96 25.7707 330.397 28.928C334.92 32 338.248 36.224 340.381 41.6C342.6 46.976 343.709 53.0773 343.709 59.904C343.709 66.6453 342.6 72.7467 340.381 78.208C338.248 83.584 334.92 87.8507 330.397 91.008C325.96 94.08 320.285 95.616 313.373 95.616C306.546 95.616 300.872 94.08 296.349 91.008C291.826 87.8507 288.456 83.584 286.237 78.208C284.104 72.7467 283.037 66.6453 283.037 59.904C283.037 53.0773 284.104 46.976 286.237 41.6C288.456 36.224 291.826 32 296.349 28.928C300.872 25.7707 306.546 24.192 313.373 24.192ZM313.373 34.048C308.85 34.048 305.181 35.2427 302.365 37.632C299.549 40.0213 297.458 43.1787 296.093 47.104C294.813 51.0293 294.173 55.296 294.173 59.904C294.173 64.4267 294.813 68.6933 296.093 72.704C297.458 76.6293 299.549 79.7867 302.365 82.176C305.181 84.5653 308.85 85.76 313.373 85.76C317.896 85.76 321.565 84.5653 324.381 82.176C327.197 79.7867 329.245 76.6293 330.525 72.704C331.89 68.6933 332.573 64.4267 332.573 59.904C332.573 55.296 331.89 51.0293 330.525 47.104C329.245 43.1787 327.197 40.0213 324.381 37.632C321.565 35.2427 317.896 34.048 313.373 34.048Z" fill="black"/>
<path d="M398.77 0H409.394V93.312H399.922V83.84C394.546 91.6907 387.421 95.616 378.546 95.616C371.975 95.616 366.514 94.0373 362.162 90.88C357.81 87.6373 354.567 83.2427 352.434 77.696C350.386 72.1493 349.362 65.9627 349.362 59.136C349.362 52.6507 350.429 46.8053 352.562 41.6C354.695 36.3093 357.895 32.0853 362.162 28.928C366.514 25.7707 371.847 24.192 378.162 24.192C387.293 24.192 394.162 27.648 398.77 34.56V0ZM379.954 34.176C375.773 34.176 372.231 35.328 369.33 37.632C366.429 39.8507 364.21 42.9227 362.674 46.848C361.223 50.688 360.498 55.04 360.498 59.904C360.498 64.4267 361.181 68.6507 362.546 72.576C363.911 76.5013 366.002 79.6587 368.818 82.048C371.719 84.4373 375.474 85.632 380.082 85.632C384.605 85.632 388.231 84.3947 390.962 81.92C393.693 79.36 395.655 76.16 396.85 72.32C398.13 68.3947 398.77 64.384 398.77 60.288C398.77 55.7653 398.13 51.5413 396.85 47.616C395.57 43.6053 393.565 40.3627 390.834 37.888C388.103 35.4133 384.477 34.176 379.954 34.176Z" fill="black"/>
<path d="M477.767 72.576C476.658 79.5733 473.543 85.1627 468.423 89.344C463.388 93.5253 456.946 95.616 449.095 95.616C442.354 95.616 436.722 94.1227 432.199 91.136C427.676 88.064 424.263 83.8827 421.959 78.592C419.74 73.3013 418.631 67.2427 418.631 60.416C418.631 52.9067 419.911 46.464 422.471 41.088C425.031 35.712 428.615 31.5733 433.223 28.672C437.831 25.6853 443.207 24.192 449.351 24.192C456.263 24.192 461.895 25.8133 466.247 29.056C470.684 32.2987 473.927 36.8213 475.975 42.624C478.108 48.4267 479.175 55.2107 479.175 62.976H429.767C429.938 69.5467 431.644 75.008 434.887 79.36C438.13 83.6267 442.994 85.76 449.479 85.76C458.268 85.76 464.114 81.3653 467.015 72.576H477.767ZM449.223 34.048C443.25 34.048 438.684 36.0107 435.527 39.936C432.37 43.8613 430.535 48.64 430.023 54.272H467.655C467.655 50.5173 466.887 47.1467 465.351 44.16C463.9 41.088 461.81 38.656 459.079 36.864C456.348 34.9867 453.063 34.048 449.223 34.048Z" fill="black"/>
<path d="M492.508 93.312V26.24H502.364V40.704C504.583 35.9253 507.783 32 511.964 28.928C516.145 25.856 520.967 24.32 526.428 24.32C534.108 24.32 539.953 26.2827 543.964 30.208C548.06 34.1333 550.407 39.424 551.004 46.08H540.38C539.612 42.0693 538.033 38.9973 535.644 36.864C533.34 34.7307 529.927 33.664 525.404 33.664C520.967 33.664 517.084 34.8587 513.756 37.248C510.428 39.552 507.825 42.752 505.948 46.848C504.156 50.8587 503.26 55.5093 503.26 60.8V93.312H492.508Z" fill="black"/>
<path d="M557.169 93.312V26.24H567.025V37.376C569.67 33.28 572.7 30.08 576.113 27.776C579.612 25.472 584.006 24.32 589.297 24.32C593.222 24.32 596.764 25.0027 599.921 26.368C603.164 27.648 605.724 29.6533 607.601 32.384C609.564 35.0293 610.545 38.4427 610.545 42.624V93.312H599.921V46.848C599.921 42.3253 598.556 38.9973 595.825 36.864C593.094 34.7307 589.852 33.664 586.097 33.664C582.086 33.664 578.716 34.688 575.985 36.736C573.254 38.784 571.206 41.472 569.841 44.8C568.476 48.128 567.793 51.712 567.793 55.552V93.312H557.169Z" fill="black"/>
<path d="M278.536 114.704H251.784L251.784 199.312H239.88L239.88 114.704H213V106H278.536V114.704Z" fill="black"/>
<path d="M313.373 130.192C320.285 130.192 325.96 131.771 330.397 134.928C334.92 138 338.248 142.224 340.381 147.6C342.6 152.976 343.709 159.077 343.709 165.904C343.709 172.645 342.6 178.747 340.381 184.208C338.248 189.584 334.92 193.851 330.397 197.008C325.96 200.08 320.285 201.616 313.373 201.616C306.546 201.616 300.872 200.08 296.349 197.008C291.826 193.851 288.456 189.584 286.237 184.208C284.104 178.747 283.037 172.645 283.037 165.904C283.037 159.077 284.104 152.976 286.237 147.6C288.456 142.224 291.826 138 296.349 134.928C300.872 131.771 306.546 130.192 313.373 130.192ZM313.373 140.048C308.85 140.048 305.181 141.243 302.365 143.632C299.549 146.021 297.458 149.179 296.093 153.104C294.813 157.029 294.173 161.296 294.173 165.904C294.173 170.427 294.813 174.693 296.093 178.704C297.458 182.629 299.549 185.787 302.365 188.176C305.181 190.565 308.85 191.76 313.373 191.76C317.896 191.76 321.565 190.565 324.381 188.176C327.197 185.787 329.245 182.629 330.525 178.704C331.89 174.693 332.573 170.427 332.573 165.904C332.573 161.296 331.89 157.029 330.525 153.104C329.245 149.179 327.197 146.021 324.381 143.632C321.565 141.243 317.896 140.048 313.373 140.048Z" fill="black"/>
<path d="M380.978 130.192C387.89 130.192 393.565 131.771 398.002 134.928C402.525 138 405.853 142.224 407.986 147.6C410.205 152.976 411.314 159.077 411.314 165.904C411.314 172.645 410.205 178.747 407.986 184.208C405.853 189.584 402.525 193.851 398.002 197.008C393.565 200.08 387.89 201.616 380.978 201.616C374.151 201.616 368.477 200.08 363.954 197.008C359.431 193.851 356.061 189.584 353.842 184.208C351.709 178.747 350.642 172.645 350.642 165.904C350.642 159.077 351.709 152.976 353.842 147.6C356.061 142.224 359.431 138 363.954 134.928C368.477 131.771 374.151 130.192 380.978 130.192ZM380.978 140.048C376.455 140.048 372.786 141.243 369.97 143.632C367.154 146.021 365.063 149.179 363.698 153.104C362.418 157.029 361.778 161.296 361.778 165.904C361.778 170.427 362.418 174.693 363.698 178.704C365.063 182.629 367.154 185.787 369.97 188.176C372.786 190.565 376.455 191.76 380.978 191.76C385.501 191.76 389.17 190.565 391.986 188.176C394.802 185.787 396.85 182.629 398.13 178.704C399.495 174.693 400.178 170.427 400.178 165.904C400.178 161.296 399.495 157.029 398.13 153.104C396.85 149.179 394.802 146.021 391.986 143.632C389.17 141.243 385.501 140.048 380.978 140.048Z" fill="black"/>
<path d="M457.543 106V190.608H478.151V199.312H424.007V190.608H447.175V114.704H424.007V106H457.543Z" fill="black"/>
<path d="M540.764 150.544H529.628C529.543 147.216 528.263 144.571 525.788 142.608C523.399 140.645 520.199 139.664 516.188 139.664C511.836 139.664 508.295 140.56 505.564 142.352C502.919 144.144 501.596 146.533 501.596 149.52C501.596 151.909 502.407 153.829 504.028 155.28C505.649 156.731 508.039 157.883 511.196 158.736L526.428 162.704C532.06 164.155 536.284 166.331 539.1 169.232C542.001 172.048 543.452 175.845 543.452 180.624C543.452 187.109 541.063 192.229 536.284 195.984C531.505 199.739 524.935 201.616 516.572 201.616C498.993 201.616 489.82 194.064 489.052 178.96H500.316C500.828 183.483 502.449 186.811 505.18 188.944C507.996 191.077 511.879 192.144 516.828 192.144C521.607 192.144 525.404 191.291 528.22 189.584C531.121 187.877 532.572 185.445 532.572 182.288C532.572 179.387 531.804 177.211 530.268 175.76C528.732 174.309 526.129 173.115 522.46 172.176L508.38 168.464C502.321 166.843 497.841 164.667 494.94 161.936C492.124 159.12 490.716 155.152 490.716 150.032C490.716 143.973 493.02 139.152 497.628 135.568C502.321 131.984 508.593 130.192 516.444 130.192C524.295 130.192 530.268 132.027 534.364 135.696C538.545 139.28 540.679 144.229 540.764 150.544Z" fill="black"/>
</svg>
